<svg
    width="16"
    height="16"
    viewBox="0 0 16 16"
    fill="none"
    xmlns="http://www.w3.org/2000/svg"
>
    <path
    d="M15.125 2V11.75C15.125 12.0484 15.0065 12.3345 14.7955 12.5455C14.5845 12.7565 14.2984 12.875 14 12.875C13.7016 12.875 13.4155 12.7565 13.2045 12.5455C12.9935 12.3345 12.875 12.0484 12.875 11.75V4.71875L2.79593 14.7959C2.58458 15.0073 2.29794 15.126 1.99905 15.126C1.70017 15.126 1.41352 15.0073 1.20218 14.7959C0.990833 14.5846 0.872101 14.2979 0.872101 13.9991C0.872101 13.7002 0.990833 13.4135 1.20218 13.2022L11.2812 3.125H4.24999C3.95162 3.125 3.66547 3.00647 3.45449 2.7955C3.24352 2.58452 3.12499 2.29837 3.12499 2C3.12499 1.70163 3.24352 1.41548 3.45449 1.2045C3.66547 0.993526 3.95162 0.875 4.24999 0.875H14C14.2984 0.875 14.5845 0.993526 14.7955 1.2045C15.0065 1.41548 15.125 1.70163 15.125 2Z"
    fill="#2D2C2C"
    />
</svg>