<svg width="22" height="20" viewBox="0 0 22 20" fill="none" xmlns="http://www.w3.org/2000/svg">
<path d="M12.125 11V14.75C12.125 15.0483 12.0065 15.3345 11.7955 15.5454C11.5845 15.7564 11.2984 15.875 11 15.875C10.7016 15.875 10.4155 15.7564 10.2045 15.5454C9.99352 15.3345 9.87499 15.0483 9.87499 14.75V11C9.87499 10.7016 9.99352 10.4154 10.2045 10.2045C10.4155 9.99348 10.7016 9.87495 11 9.87495C11.2984 9.87495 11.5845 9.99348 11.7955 10.2045C12.0065 10.4154 12.125 10.7016 12.125 11ZM21.8581 8.24745L20.5625 17.9975C20.5013 18.4481 20.2788 18.8613 19.9363 19.1606C19.5938 19.4598 19.1545 19.6248 18.6997 19.625H3.3003C2.84569 19.6246 2.40658 19.4597 2.06414 19.1607C1.7217 18.8617 1.4991 18.4488 1.43749 17.9984L0.138114 8.24839C0.10267 7.98325 0.124369 7.71359 0.201754 7.45753C0.279138 7.20147 0.410417 6.96493 0.586774 6.7638C0.763131 6.56267 0.980483 6.4016 1.22423 6.29141C1.46798 6.18122 1.73249 6.12447 1.99999 6.12495H5.23905L10.1562 0.509328C10.2618 0.388681 10.392 0.291997 10.538 0.225755C10.684 0.159513 10.8425 0.125244 11.0028 0.125244C11.1631 0.125244 11.3216 0.159513 11.4676 0.225755C11.6136 0.291997 11.7438 0.388681 11.8494 0.509328L16.7609 6.12495H20C20.267 6.12515 20.5309 6.18238 20.774 6.29281C21.0171 6.40323 21.2338 6.56431 21.4097 6.76526C21.5855 6.9662 21.7164 7.20239 21.7936 7.45801C21.8707 7.71362 21.8924 7.98278 21.8572 8.24745H21.8581ZM8.22968 6.12495H13.7712L11 2.95808L8.22968 6.12495ZM19.5734 8.37495H2.42843L3.62843 17.375H18.3716L19.5734 8.37495ZM14.7575 10.8884L14.3825 14.6384C14.3529 14.9353 14.4425 15.2317 14.6315 15.4626C14.8205 15.6934 15.0934 15.8397 15.3903 15.8693C15.4278 15.8693 15.4662 15.875 15.5037 15.875C15.7825 15.8745 16.0511 15.7705 16.2575 15.5833C16.464 15.3961 16.5936 15.1389 16.6212 14.8615L16.9962 11.1115C17.0128 10.9636 16.9998 10.8138 16.958 10.6709C16.9162 10.5281 16.8465 10.3949 16.7529 10.2792C16.6593 10.1634 16.5436 10.0674 16.4126 9.9967C16.2816 9.92598 16.1379 9.88197 15.9898 9.86721C15.8416 9.85244 15.692 9.86723 15.5497 9.9107C15.4073 9.95416 15.275 10.0255 15.1604 10.1204C15.0457 10.2154 14.9511 10.3322 14.882 10.464C14.8128 10.5959 14.7705 10.7401 14.7575 10.8884ZM7.24624 10.8884C7.21338 10.5942 7.06587 10.3247 6.83569 10.1386C6.60551 9.95238 6.31121 9.86443 6.01662 9.89379C5.72202 9.92315 5.45088 10.0675 5.26197 10.2954C5.07306 10.5234 4.98163 10.8166 5.00749 11.1115L5.38249 14.8615C5.41013 15.1389 5.53974 15.3961 5.7462 15.5833C5.95266 15.7705 6.22127 15.8745 6.49999 15.875C6.53655 15.875 6.57499 15.875 6.61249 15.8693C6.90936 15.8397 7.18231 15.6934 7.37131 15.4626C7.5603 15.2317 7.64987 14.9353 7.6203 14.6384L7.24624 10.8884Z" fill="#2D2C2C"/>
</svg>
