<svg width="22" height="20" viewBox="0 0 22 20" fill="none" xmlns="http://www.w3.org/2000/svg">
<path d="M20 7.87487H19.5519C19.2799 5.79924 18.2622 3.89339 16.6888 2.51267C15.1153 1.13194 13.0934 0.370605 11 0.370605C8.90663 0.370605 6.8847 1.13194 5.31123 2.51267C3.73775 3.89339 2.72014 5.79924 2.44812 7.87487H2C1.70163 7.87487 1.41548 7.99339 1.2045 8.20437C0.993526 8.41535 0.875 8.7015 0.875 8.99986C0.878379 10.8133 1.36701 12.5927 2.29019 14.1536C3.21337 15.7144 4.53744 16.9997 6.125 17.8761V17.9999C6.125 18.4971 6.32254 18.9741 6.67417 19.3257C7.02581 19.6773 7.50272 19.8749 8 19.8749H14C14.4973 19.8749 14.9742 19.6773 15.3258 19.3257C15.6775 18.9741 15.875 18.4971 15.875 17.9999V17.8761C17.4626 16.9997 18.7866 15.7144 19.7098 14.1536C20.633 12.5927 21.1216 10.8133 21.125 8.99986C21.125 8.7015 21.0065 8.41535 20.7955 8.20437C20.5845 7.99339 20.2984 7.87487 20 7.87487ZM14.9647 4.13049C13.2447 4.90337 11.8254 6.21861 10.9241 7.87487H8.9375C9.44529 6.75865 10.2631 5.81181 11.2935 5.147C12.324 4.4822 13.5237 4.12741 14.75 4.12486C14.8212 4.12486 14.8925 4.12487 14.9647 4.13049ZM16.5791 5.91924C16.9164 6.52856 17.1511 7.18927 17.2738 7.87487H13.6372C14.4137 6.95854 15.4336 6.28056 16.5791 5.91924ZM11 2.62487C11.0778 2.62487 11.1547 2.62487 11.2325 2.63049C10.1256 3.12656 9.1354 3.84979 8.32608 4.75327C7.51676 5.65674 6.90643 6.72028 6.53469 7.87487H4.72625C4.99187 6.40371 5.76532 5.07242 6.9118 4.11303C8.05827 3.15363 9.50506 2.62698 11 2.62487ZM14.2812 16.1614C14.0854 16.2512 13.9195 16.3953 13.8031 16.5766C13.6868 16.7579 13.625 16.9688 13.625 17.1842V17.6249H8.375V17.1842C8.37502 16.9688 8.31319 16.7579 8.19686 16.5766C8.08053 16.3953 7.91458 16.2512 7.71875 16.1614C6.52358 15.6104 5.48491 14.7696 4.69696 13.7155C3.909 12.6613 3.39672 11.4271 3.20656 10.1249H18.7934C18.6033 11.4271 18.091 12.6613 17.303 13.7155C16.5151 14.7696 15.4764 15.6104 14.2812 16.1614Z" fill="white"/>
</svg>
