<svg width="16" height="16" viewBox="0 0 16 16" fill="none" xmlns="http://www.w3.org/2000/svg">
<path d="M14.5 13.25H13.25V2.5C13.25 2.16848 13.1183 1.85054 12.8839 1.61612C12.6495 1.3817 12.3315 1.25 12 1.25H4C3.66848 1.25 3.35054 1.3817 3.11612 1.61612C2.8817 1.85054 2.75 2.16848 2.75 2.5V13.25H1.5C1.30109 13.25 1.11032 13.329 0.96967 13.4697C0.829018 13.6103 0.75 13.8011 0.75 14C0.75 14.1989 0.829018 14.3897 0.96967 14.5303C1.11032 14.671 1.30109 14.75 1.5 14.75H14.5C14.6989 14.75 14.8897 14.671 15.0303 14.5303C15.171 14.3897 15.25 14.1989 15.25 14C15.25 13.8011 15.171 13.6103 15.0303 13.4697C14.8897 13.329 14.6989 13.25 14.5 13.25ZM11.75 13.25H10.75V2.75H11.75V13.25ZM4.25 2.75H9.25V13.25H4.25V2.75ZM8.5 8.25C8.5 8.39834 8.45601 8.54334 8.3736 8.66668C8.29119 8.79001 8.17406 8.88614 8.03701 8.94291C7.89997 8.99967 7.74917 9.01453 7.60368 8.98559C7.4582 8.95665 7.32456 8.88522 7.21967 8.78033C7.11478 8.67544 7.04335 8.5418 7.01441 8.39632C6.98547 8.25083 7.00032 8.10003 7.05709 7.96299C7.11386 7.82594 7.20999 7.70881 7.33332 7.6264C7.45666 7.54399 7.60166 7.5 7.75 7.5C7.94891 7.5 8.13968 7.57902 8.28033 7.71967C8.42098 7.86032 8.5 8.05109 8.5 8.25Z" fill="#FF0828"/>
</svg>
