<svg width="20" height="21" viewBox="0 0 20 21" fill="none" xmlns="http://www.w3.org/2000/svg">
<path d="M19 5.66565C18.8234 5.75707 18.6178 5.77465 18.4283 5.71453C18.2388 5.65441 18.0809 5.5215 17.9894 5.34502C17.2735 3.93079 16.1899 2.73549 14.8525 1.88471C14.7691 1.83214 14.697 1.76367 14.6401 1.6832C14.5832 1.60274 14.5427 1.51186 14.5209 1.41575C14.4992 1.31964 14.4966 1.22019 14.5132 1.12307C14.5299 1.02594 14.5655 0.933058 14.6181 0.849709C14.6707 0.766361 14.7392 0.694183 14.8196 0.637297C14.9001 0.580411 14.991 0.53993 15.0871 0.518166C15.1832 0.496403 15.2826 0.493782 15.3798 0.510454C15.4769 0.527126 15.5698 0.562765 15.6531 0.615334C17.2118 1.61334 18.4774 3.00742 19.3206 4.65502C19.412 4.83157 19.4296 5.0372 19.3695 5.2267C19.3094 5.41621 19.1765 5.57409 19 5.66565ZM1.3478 5.75002C1.4852 5.74996 1.61995 5.71216 1.73733 5.64074C1.85471 5.56932 1.95022 5.46702 2.01343 5.34502C2.7293 3.93079 3.81288 2.73549 5.1503 1.88471C5.31863 1.77854 5.43789 1.60985 5.48184 1.41575C5.5258 1.22165 5.49084 1.01804 5.38468 0.849709C5.27851 0.68138 5.10982 0.56212 4.91572 0.518166C4.72162 0.474213 4.518 0.509165 4.34968 0.615334C2.79099 1.61334 1.52534 3.00742 0.682175 4.65502C0.62296 4.76932 0.594162 4.89694 0.59855 5.02559C0.602939 5.15424 0.640367 5.2796 0.707232 5.3896C0.774098 5.4996 0.86815 5.59053 0.980338 5.65366C1.09253 5.71678 1.21907 5.74997 1.3478 5.75002ZM18.7947 15.4944C18.9275 15.7222 18.998 15.9811 18.9989 16.2449C18.9998 16.5086 18.9311 16.768 18.7998 16.9967C18.6685 17.2255 18.4792 17.4156 18.251 17.5478C18.0228 17.6801 17.7638 17.7498 17.5 17.75H13.675C13.5029 18.5977 13.0429 19.3599 12.3732 19.9073C11.7034 20.4547 10.865 20.7538 9.99999 20.7538C9.13497 20.7538 8.29655 20.4547 7.62679 19.9073C6.95704 19.3599 6.49712 18.5977 6.32499 17.75H2.49999C2.23638 17.7495 1.97757 17.6795 1.74962 17.5471C1.52167 17.4147 1.33263 17.2246 1.20155 16.9959C1.07047 16.7672 1.00197 16.508 1.00296 16.2444C1.00395 15.9808 1.07438 15.7221 1.20717 15.4944C2.05186 14.0366 2.49999 11.9638 2.49999 9.50002C2.49999 7.5109 3.29016 5.60324 4.69669 4.19672C6.10321 2.7902 8.01086 2.00002 9.99999 2.00002C11.9891 2.00002 13.8968 2.7902 15.3033 4.19672C16.7098 5.60324 17.5 7.5109 17.5 9.50002C17.5 11.9628 17.9481 14.0356 18.7947 15.4944ZM12.1206 17.75H7.87936C8.03475 18.1882 8.32206 18.5675 8.7018 18.8358C9.08154 19.104 9.53506 19.2481 9.99999 19.2481C10.4649 19.2481 10.9184 19.104 11.2982 18.8358C11.6779 18.5675 11.9652 18.1882 12.1206 17.75Z" fill="#FFB016"/>
</svg>
