<svg
                width="12"
                height="13"
                viewBox="0 0 12 13"
                fill="none"
                xmlns="http://www.w3.org/2000/svg"
              >
                <path
                  d="M8.6518 4.7232C8.71298 4.78417 8.76152 4.85662 8.79464 4.93638C8.82777 5.01615 8.84482 5.10168 8.84482 5.18805C8.84482 5.27442 8.82777 5.35994 8.79464 5.43971C8.76152 5.51948 8.71298 5.59192 8.6518 5.65289L5.5893 8.71539C5.52833 8.77657 5.45589 8.82511 5.37612 8.85824C5.29635 8.89136 5.21083 8.90841 5.12446 8.90841C5.03808 8.90841 4.95256 8.89136 4.87279 8.85824C4.79303 8.82511 4.72058 8.77657 4.65961 8.71539L3.34711 7.40289C3.28607 7.34185 3.23765 7.26938 3.20461 7.18962C3.17157 7.10986 3.15457 7.02438 3.15457 6.93805C3.15457 6.85172 3.17157 6.76623 3.20461 6.68648C3.23765 6.60672 3.28607 6.53425 3.34711 6.4732C3.40816 6.41216 3.48063 6.36374 3.56038 6.3307C3.64014 6.29766 3.72563 6.28066 3.81196 6.28066C3.89828 6.28066 3.98377 6.29766 4.06353 6.3307C4.14329 6.36374 4.21575 6.41216 4.2768 6.4732L5.125 7.32031L7.72321 4.72156C7.78426 4.66065 7.85672 4.61238 7.93645 4.57949C8.01618 4.54661 8.1016 4.52976 8.18784 4.52991C8.27408 4.53007 8.35945 4.54721 8.43906 4.58038C8.51867 4.61355 8.59096 4.66208 8.6518 4.7232ZM11.9063 6.5C11.9063 7.66815 11.5599 8.81006 10.9109 9.78134C10.2619 10.7526 9.33945 11.5096 8.26023 11.9567C7.181 12.4037 5.99345 12.5207 4.84775 12.2928C3.70205 12.0649 2.64966 11.5024 1.82365 10.6763C0.997649 9.85035 0.435134 8.79795 0.20724 7.65225C-0.0206544 6.50655 0.0963091 5.319 0.543339 4.23978C0.990369 3.16055 1.74739 2.23812 2.71867 1.58913C3.68994 0.940146 4.83186 0.59375 6 0.59375C7.5659 0.595487 9.06717 1.21831 10.1744 2.32557C11.2817 3.43283 11.9045 4.9341 11.9063 6.5ZM10.5938 6.5C10.5938 5.59144 10.3243 4.70329 9.81957 3.94785C9.3148 3.19241 8.59735 2.60362 7.75795 2.25593C6.91856 1.90824 5.99491 1.81727 5.10381 1.99452C4.21271 2.17177 3.39418 2.60928 2.75173 3.25173C2.10928 3.89418 1.67177 4.7127 1.49452 5.6038C1.31727 6.4949 1.40824 7.41855 1.75593 8.25795C2.10362 9.09735 2.69241 9.8148 3.44785 10.3196C4.20329 10.8243 5.09144 11.0938 6 11.0938C7.21794 11.0924 8.38562 10.608 9.24683 9.74683C10.108 8.88562 10.5924 7.71794 10.5938 6.5Z"
                  fill="#00DC73"
                />
              </svg>