<svg width="88" height="30" viewBox="0 0 88 30" fill="none" xmlns="http://www.w3.org/2000/svg">
<path fill-rule="evenodd" clip-rule="evenodd" d="M46.3051 3.69752C45.5871 2.89135 44.6806 2.25857 43.5824 1.79921C42.4811 1.33984 41.1912 1.10864 39.7066 1.10864C38.2221 1.10864 36.8927 1.33984 35.7944 1.79921C34.6932 2.25857 33.7927 2.89135 33.09 3.69752C32.3872 4.50369 31.864 5.43763 31.5172 6.4963C31.1734 7.55801 31 8.68969 31 9.89134V12.538C31 13.688 31.1734 14.7771 31.5172 15.7992C31.864 16.8214 32.3872 17.7158 33.09 18.4854C33.7927 19.2521 34.6932 19.8605 35.7944 20.3077C36.8927 20.7549 38.1977 20.98 39.7066 20.98C41.2156 20.98 42.4811 20.7549 43.5824 20.3077C44.6806 19.8605 45.5902 19.2521 46.3051 18.4854C47.02 17.7188 47.5524 16.8244 47.8961 15.7992C48.2399 14.7771 48.4133 13.688 48.4133 12.538V9.89134C48.4133 8.68969 48.2399 7.55801 47.8961 6.4963C47.5524 5.43459 47.02 4.50065 46.3051 3.69752ZM43.8896 12.5776C43.8896 13.983 43.5185 15.0721 42.7762 15.8388C42.0339 16.6054 41.0117 16.9887 39.7066 16.9887C38.4016 16.9887 37.3794 16.6054 36.6371 15.8388C35.8948 15.0721 35.5237 13.9861 35.5237 12.5776V9.81529C35.5237 8.28204 35.8948 7.11689 36.6371 6.32289C37.3794 5.53193 38.4016 5.13342 39.7066 5.13342C41.0117 5.13342 42.0339 5.52889 42.7762 6.32289C43.5185 7.11689 43.8896 8.279 43.8896 9.81529V12.5776ZM65.638 3.69752C64.92 2.89135 64.0135 2.25857 62.9152 1.79921C61.814 1.33984 60.5241 1.10864 59.0395 1.10864C57.555 1.10864 56.2255 1.33984 55.1273 1.79921C54.0261 2.25857 53.1256 2.89135 52.4228 3.69752C51.7201 4.50369 51.1969 5.43763 50.8501 6.4963C50.5063 7.55801 50.3329 8.68969 50.3329 9.89134V12.538C50.3329 13.688 50.5063 14.7771 50.8501 15.7992C51.1969 16.8214 51.7201 17.7158 52.4228 18.4854C53.1256 19.2521 54.0261 19.8605 55.1273 20.3077C56.2255 20.7549 57.5306 20.98 59.0395 20.98C60.5484 20.98 61.814 20.7549 62.9152 20.3077C64.0135 19.8605 64.9231 19.2521 65.638 18.4854C66.3529 17.7188 66.8853 16.8244 67.229 15.7992C67.5728 14.7771 67.7462 13.688 67.7462 12.538V9.89134C67.7462 8.68969 67.5728 7.55801 67.229 6.4963C66.8853 5.43459 66.3529 4.50065 65.638 3.69752ZM63.2225 12.5776C63.2225 13.983 62.8514 15.0721 62.1091 15.8388C61.3668 16.6054 60.3446 16.9887 59.0395 16.9887C57.7344 16.9887 56.7123 16.6054 55.97 15.8388C55.2277 15.0721 54.8566 13.9861 54.8566 12.5776V9.81529C54.8566 8.28204 55.2277 7.11689 55.97 6.32289C56.7123 5.53193 57.7344 5.13342 59.0395 5.13342C60.3446 5.13342 61.3668 5.52889 62.1091 6.32289C62.8514 7.11689 63.2225 8.279 63.2225 9.81529V12.5776ZM82.7836 1.81746C83.9092 2.28899 84.834 2.92785 85.5641 3.73402V3.74011C86.2912 4.54323 86.8418 5.47718 87.213 6.53889C87.5841 7.6006 87.7697 8.73229 87.7697 9.93394V12.1973C87.7697 13.3989 87.6176 14.5306 87.3103 15.5923C87.0031 16.651 86.5285 17.585 85.8896 18.3911C85.2508 19.1943 84.4324 19.8361 83.4346 20.3077C82.4368 20.7792 81.2351 21.0165 79.8297 21.0165C78.7801 21.0165 77.8796 20.8309 77.1252 20.4598C76.3707 20.0886 75.7136 19.5958 75.1508 18.9813L74.8436 19.0574V27.3046C74.8436 27.764 74.6428 28.1808 74.2473 28.5519C73.8518 28.9231 73.3468 29.1086 72.6563 29.1086C71.9657 29.1086 71.409 28.9231 70.9861 28.5519C70.5633 28.1808 70.3533 27.764 70.3533 27.3046V8.77791C70.3533 7.6797 70.5328 6.66362 70.8918 5.72968C71.2508 4.79574 71.7862 3.98348 72.5042 3.29291C73.2191 2.60538 74.1074 2.06692 75.1691 1.68361C76.2308 1.30029 77.3899 1.10864 78.8714 1.10864C80.3529 1.10864 81.658 1.34593 82.7836 1.81746ZM82.0352 15.6076C82.8414 14.7892 83.243 13.7032 83.243 12.3464V9.77879C83.243 8.42198 82.8414 7.33593 82.0352 6.51759C81.2321 5.7023 80.1765 5.29161 78.8714 5.29161C77.7184 5.29161 76.7601 5.55931 75.9935 6.09778C75.2269 6.63319 74.8436 7.47892 74.8436 8.62885V12.7327C74.8436 14.1382 75.2269 15.1756 75.9935 15.8388C76.7632 16.505 77.7214 16.8366 78.8714 16.8366C80.1734 16.8366 81.2291 16.4259 82.0352 15.6076Z" fill="url(#paint0_linear_5514_16365)"/>
<path d="M28.6108 10.1039C28.5085 10.019 28.3926 9.97692 28.2632 9.97692C27.8364 9.97692 27.2442 10.458 26.4842 11.4195C25.4748 12.7391 24.905 13.5033 24.7747 13.7103C24.3671 14.3418 24.1633 14.8512 24.1633 15.2377C24.1633 15.3607 24.2001 15.6671 24.2752 16.1571C24.3032 16.3366 24.3168 16.5202 24.3168 16.7086C24.3168 18.1981 23.4696 19.9042 21.7754 21.8271C19.9788 23.8632 18.5635 24.9855 17.5301 25.1925C17.1201 25.2694 16.874 25.1748 16.7901 24.9111C16.7709 24.8545 16.7621 24.7979 16.7621 24.7413C16.7621 24.5149 16.874 24.2279 17.0969 23.8786C17.8226 22.757 21.0913 17.3644 26.9005 7.70149H26.887C26.8965 7.69179 26.9053 7.67804 26.9149 7.65945C26.9333 7.64085 26.9469 7.62629 26.9565 7.6174C27.4752 6.74086 27.9387 5.95813 28.3455 5.27C28.642 4.58187 28.7898 3.94065 28.7898 3.34713C28.7898 2.91371 28.7051 2.5086 28.5349 2.13098C27.798 0.783024 26.6608 0.108643 25.1216 0.108643H3.89442C2.81792 0.108643 1.90206 0.485455 1.14683 1.23989C0.38201 2.00241 0 2.91695 0 3.98269V15.1536C0.0903078 15.8798 0.334858 16.4313 0.73445 16.8081C0.984595 17.0345 1.2691 17.1477 1.58878 17.1477C2.32323 17.1477 3.25668 16.5445 4.38912 15.3372C5.63025 13.8008 6.31036 12.9243 6.43024 12.7068C6.55891 12.4618 6.62364 12.2168 6.62364 11.9718C6.62364 11.7454 6.57249 11.5149 6.4702 11.2788C6.2656 10.7791 6.16251 10.3456 6.16251 9.97773C6.16251 9.66642 6.23683 9.40766 6.38628 9.19985L10.9808 2.87894C11.1015 2.70913 11.2549 2.69054 11.4419 2.82234C11.6369 2.95414 11.6745 3.10535 11.5538 3.27516L7.82481 8.71953C7.71293 8.87964 7.74569 9.02115 7.92231 9.14405C8.09893 9.27586 8.24359 9.25726 8.35547 9.08745L12.0701 3.68593C12.2003 3.49753 12.3682 3.47408 12.5728 3.61559C12.7869 3.7668 12.8285 3.9358 12.6982 4.1242L8.98363 9.54027C8.87175 9.70038 8.90451 9.84188 9.08113 9.96479C9.25775 10.0877 9.4024 10.0683 9.51429 9.90819L13.2289 4.50667C13.3592 4.30856 13.527 4.28511 13.7316 4.43633C13.9458 4.58754 13.9873 4.75734 13.8571 4.94494L10.1424 10.3465C10.0306 10.5066 10.0633 10.6529 10.2399 10.7847C10.4166 10.9076 10.5612 10.8882 10.6731 10.7281L14.4021 5.28375C14.5228 5.11394 14.6762 5.09534 14.8632 5.22715C15.0494 5.35895 15.0862 5.51501 14.9751 5.69371L10.7298 12.2548C10.4501 12.6882 9.87312 12.9049 8.99802 12.9049H8.7191C8.20123 12.9049 7.76088 13.0844 7.39965 13.4426C7.01844 13.8388 5.06363 16.8695 1.53523 22.5346C0.821561 23.8454 0.465125 24.9783 0.465125 25.9348C0.465125 26.7451 0.710475 27.4316 1.20117 27.9936C1.9556 28.7367 2.86108 29.1086 3.9176 29.1086H25.124C26.1989 29.1086 27.1139 28.7278 27.8684 27.9653C28.6228 27.193 29 26.2688 29 25.1917V11.447C28.9904 10.7686 28.8609 10.3206 28.6108 10.1039Z" fill="url(#paint1_linear_5514_16365)"/>
<defs>
<linearGradient id="paint0_linear_5514_16365" x1="86.4026" y1="4.11125" x2="67.4636" y2="18.37" gradientUnits="userSpaceOnUse">
<stop stop-color="#FF6315"/>
<stop offset="0.26" stop-color="#FF411C"/>
<stop offset="0.57" stop-color="#FF1D23"/>
<stop offset="0.83" stop-color="#FF0728"/>
<stop offset="1" stop-color="#FF002A"/>
</linearGradient>
<linearGradient id="paint1_linear_5514_16365" x1="27.81" y1="1.14286" x2="0.924762" y2="27.7147" gradientUnits="userSpaceOnUse">
<stop stop-color="#FF6315"/>
<stop offset="0.26" stop-color="#FF411C"/>
<stop offset="0.57" stop-color="#FF1D23"/>
<stop offset="0.83" stop-color="#FF0728"/>
<stop offset="1" stop-color="#FF002A"/>
</linearGradient>
</defs>
</svg>
