<svg width="150" height="51" viewBox="0 0 150 51" fill="none" xmlns="http://www.w3.org/2000/svg">
<path fill-rule="evenodd" clip-rule="evenodd" d="M78.9291 6.45046C77.7054 5.0763 76.1601 3.99771 74.2881 3.2147C72.411 2.43169 70.2123 2.0376 67.6818 2.0376C65.1513 2.0376 62.8852 2.43169 61.0132 3.2147C59.1361 3.99771 57.6012 5.0763 56.4033 6.45046C55.2055 7.82461 54.3136 9.41655 53.7224 11.2211C53.1365 13.0308 52.8409 14.9598 52.8409 17.0081V21.5195C52.8409 23.4796 53.1365 25.336 53.7224 27.0783C54.3136 28.8207 55.2055 30.3452 56.4033 31.6571C57.6012 32.9639 59.1361 34.001 61.0132 34.7632C62.8852 35.5255 65.1098 35.9092 67.6818 35.9092C70.2538 35.9092 72.411 35.5255 74.2881 34.7632C76.1601 34.001 77.7105 32.9639 78.9291 31.6571C80.1477 30.3504 81.0552 28.8259 81.6411 27.0783C82.2271 25.336 82.5227 23.4796 82.5227 21.5195V17.0081C82.5227 14.9598 82.2271 13.0308 81.6411 11.2211C81.0552 9.41136 80.1477 7.81943 78.9291 6.45046ZM74.8118 21.5869C74.8118 23.9826 74.1792 25.839 72.914 27.1457C71.6487 28.4525 69.9064 29.1059 67.6818 29.1059C65.4572 29.1059 63.7149 28.4525 62.4496 27.1457C61.1844 25.839 60.5517 23.9878 60.5517 21.5869V16.8785C60.5517 14.265 61.1844 12.2789 62.4496 10.9255C63.7149 9.57729 65.4572 8.89801 67.6818 8.89801C69.9064 8.89801 71.6487 9.57211 72.914 10.9255C74.1792 12.2789 74.8118 14.2598 74.8118 16.8785V21.5869ZM111.883 6.45046C110.659 5.0763 109.114 3.99771 107.242 3.2147C105.365 2.43169 103.166 2.0376 100.636 2.0376C98.1051 2.0376 95.839 2.43169 93.967 3.2147C92.0899 3.99771 90.555 5.0763 89.3571 6.45046C88.1593 7.82461 87.2674 9.41655 86.6762 11.2211C86.0903 13.0308 85.7947 14.9598 85.7947 17.0081V21.5195C85.7947 23.4796 86.0903 25.336 86.6762 27.0783C87.2674 28.8207 88.1593 30.3452 89.3571 31.6571C90.555 32.9639 92.0899 34.001 93.967 34.7632C95.839 35.5255 98.0636 35.9092 100.636 35.9092C103.208 35.9092 105.365 35.5255 107.242 34.7632C109.114 34.001 110.664 32.9639 111.883 31.6571C113.102 30.3504 114.009 28.8259 114.595 27.0783C115.181 25.336 115.476 23.4796 115.476 21.5195V17.0081C115.476 14.9598 115.181 13.0308 114.595 11.2211C114.009 9.41136 113.102 7.81943 111.883 6.45046ZM107.766 21.5869C107.766 23.9826 107.133 25.839 105.868 27.1457C104.602 28.4525 102.86 29.1059 100.636 29.1059C98.411 29.1059 96.6687 28.4525 95.4034 27.1457C94.1382 25.839 93.5055 23.9878 93.5055 21.5869V16.8785C93.5055 14.265 94.1382 12.2789 95.4034 10.9255C96.6687 9.57729 98.411 8.89801 100.636 8.89801C102.86 8.89801 104.602 9.57211 105.868 10.9255C107.133 12.2789 107.766 14.2598 107.766 16.8785V21.5869ZM141.108 3.24581C143.027 4.04956 144.603 5.13852 145.848 6.51268V6.52305C147.087 7.89201 148.026 9.48397 148.658 11.2937C149.291 13.1034 149.607 15.0324 149.607 17.0807V20.9387C149.607 22.987 149.348 24.916 148.824 26.7257C148.301 28.5303 147.492 30.1222 146.403 31.4964C145.314 32.8653 143.919 33.9595 142.218 34.7632C140.517 35.567 138.469 35.9715 136.073 35.9715C134.284 35.9715 132.749 35.6551 131.463 35.0225C130.177 34.3899 129.057 33.5498 128.098 32.5024L127.574 32.632V46.6899C127.574 47.4729 127.232 48.1833 126.558 48.8159C125.884 49.4485 125.023 49.7649 123.846 49.7649C122.669 49.7649 121.72 49.4485 120.999 48.8159C120.278 48.1833 119.92 47.4729 119.92 46.6899V15.1102C119.92 13.2383 120.226 11.5063 120.838 9.91436C121.45 8.32242 122.363 6.93788 123.587 5.76078C124.805 4.58886 126.319 3.67102 128.129 3.01765C129.939 2.36428 131.915 2.0376 134.44 2.0376C136.965 2.0376 139.19 2.44206 141.108 3.24581ZM139.833 26.7517C141.207 25.3568 141.891 23.5055 141.891 21.1928V16.8162C141.891 14.5035 141.207 12.6523 139.833 11.2574C138.464 9.86769 136.664 9.16765 134.44 9.16765C132.475 9.16765 130.841 9.62397 129.534 10.5418C128.228 11.4544 127.574 12.896 127.574 14.8561V21.8514C127.574 24.2471 128.228 26.0153 129.534 27.1457C130.846 28.2814 132.48 28.8466 134.44 28.8466C136.659 28.8466 138.459 28.1466 139.833 26.7517Z" fill="url(#paint0_linear_807_24629)"/>
<path d="M48.7684 17.3703C48.594 17.2256 48.3965 17.1539 48.1758 17.1539C47.4484 17.1539 46.439 17.974 45.1435 19.6129C43.423 21.8623 42.4517 23.1648 42.2296 23.5176C41.5349 24.5941 41.1875 25.4624 41.1875 26.1212C41.1875 26.3308 41.2502 26.8531 41.3782 27.6884C41.4259 27.9944 41.4491 28.3073 41.4491 28.6284C41.4491 31.1673 40.0051 34.0755 37.1171 37.3531C34.0548 40.8237 31.6423 42.7368 29.8809 43.0897C29.182 43.2206 28.7625 43.0593 28.6194 42.61C28.5867 42.5135 28.5717 42.417 28.5717 42.3206C28.5717 41.9346 28.7625 41.4453 29.1425 40.8499C30.3794 38.9382 35.951 29.7462 45.8532 13.2754H45.83C45.8464 13.2588 45.8614 13.2354 45.8777 13.2037C45.909 13.172 45.9322 13.1472 45.9486 13.132C46.8327 11.6379 47.6228 10.3037 48.3161 9.13078C48.8215 7.95784 49.0735 6.86483 49.0735 5.85315C49.0735 5.11438 48.9291 4.42384 48.639 3.78017C47.383 1.48252 45.4445 0.333008 42.8208 0.333008H6.63822C4.80328 0.333008 3.24215 0.975302 1.95482 2.26127C0.651154 3.56102 0 5.11989 0 6.93651V25.9779C0.153934 27.2156 0.570781 28.1556 1.2519 28.7979C1.67829 29.1839 2.16325 29.3768 2.70814 29.3768C3.96005 29.3768 5.55115 28.3486 7.48145 26.2908C9.59702 23.672 10.7563 22.1779 10.9606 21.8071C11.18 21.3895 11.2903 20.9719 11.2903 20.5542C11.2903 20.1683 11.2031 19.7755 11.0287 19.373C10.68 18.5212 10.5043 17.7825 10.5043 17.1553C10.5043 16.6247 10.631 16.1836 10.8857 15.8294L18.7173 5.05511C18.923 4.76566 19.1845 4.73396 19.5033 4.95863C19.8357 5.18329 19.8997 5.44104 19.694 5.73048L13.3378 15.0107C13.147 15.2836 13.2029 15.5248 13.5039 15.7343C13.805 15.9589 14.0516 15.9272 14.2423 15.6378L20.574 6.43067C20.796 6.10952 21.0821 6.06955 21.4309 6.31075C21.7959 6.5685 21.8668 6.85656 21.6447 7.17771L15.313 16.4097C15.1223 16.6826 15.1781 16.9238 15.4792 17.1333C15.7803 17.3428 16.0268 17.3097 16.2175 17.0368L22.5493 7.82965C22.7713 7.49197 23.0574 7.452 23.4061 7.70974C23.7712 7.96748 23.842 8.25693 23.62 8.5767L17.2883 17.7838C17.0975 18.0567 17.1534 18.3062 17.4545 18.5309C17.7555 18.7404 18.0021 18.7073 18.1928 18.4344L24.549 9.15421C24.7547 8.86477 25.0163 8.83307 25.3351 9.05773C25.6525 9.2824 25.7151 9.54841 25.5258 9.85302L18.2895 21.0366C17.8127 21.7754 16.8292 22.1448 15.3375 22.1448H14.8621C13.9794 22.1448 13.2288 22.4508 12.613 23.0614C11.9632 23.7368 8.63119 28.9027 2.61687 38.5591C1.40039 40.7934 0.792827 42.7244 0.792827 44.3549C0.792827 45.736 1.21104 46.9062 2.04746 47.8641C3.33342 49.1308 4.87684 49.7648 6.67773 49.7648H42.8249C44.6571 49.7648 46.2169 49.1156 47.5029 47.8159C48.7888 46.4996 49.4318 44.9242 49.4318 43.0883V19.6597C49.4155 18.5033 49.1948 17.7397 48.7684 17.3703Z" fill="url(#paint1_linear_807_24629)"/>
<defs>
<linearGradient id="paint0_linear_807_24629" x1="147.277" y1="7.15568" x2="114.995" y2="31.4604" gradientUnits="userSpaceOnUse">
<stop stop-color="#FF6315"/>
<stop offset="0.26" stop-color="#FF411C"/>
<stop offset="0.57" stop-color="#FF1D23"/>
<stop offset="0.83" stop-color="#FF0728"/>
<stop offset="1" stop-color="#FF002A"/>
</linearGradient>
<linearGradient id="paint1_linear_807_24629" x1="47.4034" y1="2.09587" x2="1.5763" y2="47.3888" gradientUnits="userSpaceOnUse">
<stop stop-color="#FF6315"/>
<stop offset="0.26" stop-color="#FF411C"/>
<stop offset="0.57" stop-color="#FF1D23"/>
<stop offset="0.83" stop-color="#FF0728"/>
<stop offset="1" stop-color="#FF002A"/>
</linearGradient>
</defs>
</svg>
