<svg width="24" height="18" viewBox="0 0 24 18" fill="none" xmlns="http://www.w3.org/2000/svg">
<path d="M19.875 9.125C19.7606 9.125 19.6472 9.13063 19.5356 9.14L16.4288 0.855313C16.3484 0.640763 16.2044 0.455869 16.0161 0.32536C15.8278 0.19485 15.6041 0.124948 15.375 0.125H12.375C12.0766 0.125 11.7905 0.243527 11.5795 0.454505C11.3685 0.665483 11.25 0.951631 11.25 1.25C11.25 1.54837 11.3685 1.83452 11.5795 2.0455C11.7905 2.25647 12.0766 2.375 12.375 2.375H14.595L17.4291 9.93125C16.8016 10.3942 16.3171 11.0245 16.0312 11.75H13.2938L11.1788 6.10531C11.0984 5.89076 10.9544 5.70587 10.7661 5.57536C10.5778 5.44485 10.3541 5.37495 10.125 5.375H2.625C2.32663 5.375 2.04048 5.49353 1.8295 5.7045C1.61853 5.91548 1.5 6.20163 1.5 6.5C1.5 6.79837 1.61853 7.08452 1.8295 7.2955C2.04048 7.50647 2.32663 7.625 2.625 7.625H3V7.89875C2.09531 8.37773 1.33809 9.09397 0.80958 9.97065C0.281065 10.8473 0.00119787 11.8513 0 12.875C0 13.1734 0.118526 13.4595 0.329505 13.6705C0.540483 13.8815 0.826631 14 1.125 14H1.56938C1.74531 14.9471 2.24718 15.8028 2.98795 16.4187C3.72872 17.0345 4.66167 17.3717 5.625 17.3717C6.58833 17.3717 7.52128 17.0345 8.26205 16.4187C9.00282 15.8028 9.50469 14.9471 9.68062 14H15.8194C15.9619 14.7707 16.321 15.4849 16.8547 16.0589C17.3884 16.6329 18.0746 17.0429 18.833 17.2411C19.5913 17.4392 20.3904 17.4171 21.1367 17.1775C21.8829 16.9379 22.5455 16.4907 23.0467 15.8881C23.548 15.2856 23.8672 14.5527 23.967 13.7753C24.0668 12.9979 23.9431 12.2081 23.6103 11.4985C23.2775 10.7889 22.7494 10.1888 22.0879 9.76842C21.4264 9.34807 20.6588 9.12488 19.875 9.125ZM4.5 9.69219C4.71943 9.61461 4.9094 9.47088 5.04373 9.28081C5.17805 9.09074 5.25012 8.86368 5.25 8.63094V7.625H9.345L10.8919 11.75H2.44313C2.61079 11.2753 2.88253 10.8441 3.23843 10.4881C3.59433 10.132 4.02538 9.86007 4.5 9.69219ZM5.625 15.125C5.26033 15.1248 4.90363 15.0183 4.59858 14.8185C4.29353 14.6187 4.05337 14.3342 3.9075 14H7.3425C7.19663 14.3342 6.95647 14.6187 6.65142 14.8185C6.34637 15.0183 5.98967 15.1248 5.625 15.125ZM19.875 15.125C19.5042 15.125 19.1416 15.015 18.8333 14.809C18.525 14.603 18.2846 14.3101 18.1427 13.9675C18.0008 13.6249 17.9637 13.2479 18.036 12.8842C18.1084 12.5205 18.287 12.1864 18.5492 11.9242C18.8114 11.662 19.1455 11.4834 19.5092 11.411C19.8729 11.3387 20.2499 11.3758 20.5925 11.5177C20.9351 11.6596 21.228 11.9 21.434 12.2083C21.64 12.5166 21.75 12.8792 21.75 13.25C21.75 13.7473 21.5525 14.2242 21.2008 14.5758C20.8492 14.9275 20.3723 15.125 19.875 15.125Z" fill="white"/>
</svg>
