<svg width="14" height="14" viewBox="0 0 14 14" fill="none" xmlns="http://www.w3.org/2000/svg">
<path d="M8.27563 1.30624C8.32705 1.11415 8.45266 0.950341 8.62483 0.850836C8.797 0.751331 9.00164 0.724275 9.19376 0.775616C10.1634 1.02822 11.0481 1.5349 11.7566 2.24341C12.4651 2.95193 12.9718 3.83662 13.2244 4.80624C13.2522 4.9021 13.2605 5.00253 13.249 5.10166C13.2375 5.2008 13.2063 5.29663 13.1572 5.38355C13.1082 5.47047 13.0423 5.54673 12.9634 5.60786C12.8845 5.66899 12.7942 5.71376 12.6978 5.73954C12.6014 5.76533 12.5008 5.77162 12.4019 5.75803C12.3031 5.74445 12.2079 5.71127 12.122 5.66044C12.0361 5.60961 11.9613 5.54215 11.9018 5.46201C11.8423 5.38187 11.7994 5.29067 11.7756 5.19374C11.5894 4.4795 11.216 3.82783 10.6941 3.3059C10.1722 2.78396 9.5205 2.41063 8.80625 2.22437C8.61416 2.17294 8.45035 2.04734 8.35085 1.87517C8.25134 1.703 8.22429 1.49836 8.27563 1.30624ZM13.7406 9.97374C13.6214 10.881 13.1761 11.7139 12.4877 12.3168C11.7994 12.9197 10.9151 13.2514 10 13.25C4.89938 13.25 0.750005 9.10062 0.750005 3.99999C0.748586 3.08493 1.08031 2.20064 1.68322 1.51227C2.28612 0.823911 3.11899 0.378549 4.02625 0.259366C4.29358 0.226882 4.56425 0.281377 4.79818 0.414775C5.03211 0.548174 5.21684 0.75338 5.325 0.999991L6.64438 3.94562C6.64578 3.94948 6.64745 3.95324 6.64938 3.95687C6.73046 4.14638 6.76342 4.353 6.74532 4.55833C6.72722 4.76367 6.65862 4.96134 6.54563 5.13374C6.52955 5.15886 6.5118 5.18287 6.4925 5.20562L5.30125 6.62499C5.7425 7.42749 6.5825 8.25999 7.39438 8.70062L8.78875 7.51312C8.81113 7.49438 8.8345 7.47685 8.85876 7.46062C9.03176 7.34452 9.23115 7.27373 9.43863 7.25473C9.64611 7.23573 9.85504 7.26913 10.0463 7.35187L10.0575 7.35687L13 8.67499C13.2466 8.78324 13.4517 8.96799 13.5851 9.20189C13.7185 9.4358 13.773 9.70643 13.7406 9.97374ZM12.2213 9.96999L9.59625 8.79437L8.19438 9.98624C8.17234 10.0053 8.14917 10.0231 8.125 10.0394C7.9448 10.1589 7.73669 10.2296 7.52099 10.2446C7.30529 10.2596 7.08939 10.2184 6.89438 10.125C5.67688 9.53749 4.46375 8.33249 3.875 7.12499C3.78138 6.93085 3.73954 6.7158 3.75356 6.50072C3.76758 6.28564 3.83697 6.07784 3.955 5.89749C3.9713 5.87236 3.98926 5.84835 4.00875 5.82562L5.20625 4.40562L4.03 1.78062C3.52463 1.89199 3.07254 2.17282 2.74877 2.57652C2.42499 2.98022 2.249 3.4825 2.25 3.99999C2.25249 6.05466 3.0698 8.02446 4.52267 9.47733C5.97554 10.9302 7.94534 11.7475 10 11.75C10.5178 11.7514 11.0205 11.5756 11.4246 11.2518C11.8287 10.928 12.1098 10.4757 12.2213 9.96999ZM8.10188 4.59187C8.40859 4.68854 8.68746 4.85775 8.91486 5.08514C9.14225 5.31253 9.31146 5.59141 9.40813 5.89812C9.45599 6.05029 9.55112 6.18324 9.6797 6.27765C9.80828 6.37206 9.96361 6.42302 10.1231 6.42312C10.1996 6.42302 10.2757 6.41143 10.3488 6.38874C10.5377 6.32894 10.6954 6.19676 10.7872 6.02109C10.879 5.84542 10.8975 5.64054 10.8388 5.45124C10.6696 4.91422 10.3734 4.42594 9.9753 4.02782C9.57718 3.6297 9.0889 3.33351 8.55188 3.16437C8.45737 3.13265 8.35748 3.1201 8.25806 3.12744C8.15864 3.13478 8.06168 3.16187 7.97285 3.20712C7.88403 3.25237 7.80511 3.31487 7.74072 3.39098C7.67633 3.46709 7.62776 3.55527 7.59785 3.65036C7.56793 3.74546 7.55728 3.84557 7.56651 3.94483C7.57574 4.04409 7.60466 4.14052 7.65159 4.22847C7.69852 4.31642 7.76251 4.39414 7.83983 4.45707C7.91714 4.52 8.00623 4.56689 8.10188 4.59499V4.59187Z" fill="#15D28E"/>
</svg>
