<svg width="15" height="14" viewBox="0 0 15 14" fill="none" xmlns="http://www.w3.org/2000/svg">
<path d="M13.0835 3.25H12.4167V1.5C12.4167 1.30109 12.3376 1.11032 12.197 0.96967C12.0563 0.829018 11.8656 0.75 11.6667 0.75H3.66666C3.46774 0.75 3.27698 0.829018 3.13633 0.96967C2.99567 1.11032 2.91666 1.30109 2.91666 1.5V3.25H2.24978C1.23916 3.25 0.416656 4.035 0.416656 5V10C0.416656 10.1989 0.495674 10.3897 0.636326 10.5303C0.776979 10.671 0.967744 10.75 1.16666 10.75H2.91666V12.5C2.91666 12.6989 2.99567 12.8897 3.13633 13.0303C3.27698 13.171 3.46774 13.25 3.66666 13.25H11.6667C11.8656 13.25 12.0563 13.171 12.197 13.0303C12.3376 12.8897 12.4167 12.6989 12.4167 12.5V10.75H14.1667C14.3656 10.75 14.5563 10.671 14.697 10.5303C14.8376 10.3897 14.9167 10.1989 14.9167 10V5C14.9167 4.035 14.0942 3.25 13.0835 3.25ZM4.41666 2.25H10.9167V3.25H4.41666V2.25ZM10.9167 11.75H4.41666V9.75H10.9167V11.75ZM13.4167 9.25H12.4167V9C12.4167 8.80109 12.3376 8.61032 12.197 8.46967C12.0563 8.32902 11.8656 8.25 11.6667 8.25H3.66666C3.46774 8.25 3.27698 8.32902 3.13633 8.46967C2.99567 8.61032 2.91666 8.80109 2.91666 9V9.25H1.91666V5C1.91666 4.86438 2.06916 4.75 2.24978 4.75H13.0835C13.2642 4.75 13.4167 4.86438 13.4167 5V9.25ZM12.4167 6.5C12.4167 6.69778 12.358 6.89112 12.2481 7.05557C12.1382 7.22002 11.9821 7.34819 11.7993 7.42388C11.6166 7.49957 11.4155 7.51937 11.2216 7.48079C11.0276 7.4422 10.8494 7.34696 10.7095 7.20711C10.5697 7.06725 10.4745 6.88907 10.4359 6.69509C10.3973 6.50111 10.4171 6.30004 10.4928 6.11732C10.5685 5.93459 10.6966 5.77841 10.8611 5.66853C11.0255 5.55865 11.2189 5.5 11.4167 5.5C11.6819 5.5 11.9362 5.60536 12.1238 5.79289C12.3113 5.98043 12.4167 6.23478 12.4167 6.5Z" fill="#2D2C2C"/>
</svg>
