<svg width="17" height="17" viewBox="0 0 17 17" fill="none" xmlns="http://www.w3.org/2000/svg">
<path d="M13.625 10.125C13.6264 10.3543 13.5567 10.5785 13.4255 10.7666C13.2943 10.9547 13.1081 11.0976 12.8923 11.1755L9.26069 12.5114L7.92476 16.1402C7.84564 16.3552 7.70251 16.5406 7.51467 16.6717C7.32682 16.8027 7.10331 16.8729 6.87429 16.8729C6.64526 16.8729 6.42175 16.8027 6.23391 16.6717C6.04607 16.5406 5.90293 16.3552 5.82382 16.1402L4.48437 12.5156L0.854834 11.1797C0.639909 11.1006 0.454422 10.9574 0.323402 10.7696C0.192381 10.5818 0.122131 10.3582 0.122131 10.1292C0.122131 9.9002 0.192381 9.67668 0.323402 9.48884C0.454422 9.301 0.639909 9.15786 0.854834 9.07875L4.48647 7.74281L5.82241 4.11398C5.90153 3.89906 6.04466 3.71357 6.2325 3.58255C6.42035 3.45153 6.64386 3.38128 6.87288 3.38128C7.1019 3.38128 7.32542 3.45153 7.51326 3.58255C7.7011 3.71357 7.84424 3.89906 7.92335 4.11398L9.25929 7.74563L12.8881 9.08156C13.1035 9.15836 13.2899 9.29982 13.4218 9.4866C13.5537 9.67338 13.6247 9.89634 13.625 10.125ZM9.68749 3.375H10.8125V4.5C10.8125 4.64918 10.8718 4.79226 10.9772 4.89775C11.0827 5.00324 11.2258 5.0625 11.375 5.0625C11.5242 5.0625 11.6672 5.00324 11.7727 4.89775C11.8782 4.79226 11.9375 4.64918 11.9375 4.5V3.375H13.0625C13.2117 3.375 13.3547 3.31574 13.4602 3.21025C13.5657 3.10476 13.625 2.96168 13.625 2.8125C13.625 2.66332 13.5657 2.52024 13.4602 2.41475C13.3547 2.30926 13.2117 2.25 13.0625 2.25H11.9375V1.125C11.9375 0.975816 11.8782 0.832742 11.7727 0.727252C11.6672 0.621763 11.5242 0.5625 11.375 0.5625C11.2258 0.5625 11.0827 0.621763 10.9772 0.727252C10.8718 0.832742 10.8125 0.975816 10.8125 1.125V2.25H9.68749C9.53831 2.25 9.39523 2.30926 9.28974 2.41475C9.18425 2.52024 9.12499 2.66332 9.12499 2.8125C9.12499 2.96168 9.18425 3.10476 9.28974 3.21025C9.39523 3.31574 9.53831 3.375 9.68749 3.375ZM15.875 5.625H15.3125V5.0625C15.3125 4.91332 15.2532 4.77024 15.1477 4.66475C15.0422 4.55926 14.8992 4.5 14.75 4.5C14.6008 4.5 14.4577 4.55926 14.3522 4.66475C14.2468 4.77024 14.1875 4.91332 14.1875 5.0625V5.625H13.625C13.4758 5.625 13.3327 5.68426 13.2272 5.78975C13.1218 5.89524 13.0625 6.03832 13.0625 6.1875C13.0625 6.33668 13.1218 6.47976 13.2272 6.58525C13.3327 6.69074 13.4758 6.75 13.625 6.75H14.1875V7.3125C14.1875 7.46168 14.2468 7.60476 14.3522 7.71025C14.4577 7.81574 14.6008 7.875 14.75 7.875C14.8992 7.875 15.0422 7.81574 15.1477 7.71025C15.2532 7.60476 15.3125 7.46168 15.3125 7.3125V6.75H15.875C16.0242 6.75 16.1672 6.69074 16.2727 6.58525C16.3782 6.47976 16.4375 6.33668 16.4375 6.1875C16.4375 6.03832 16.3782 5.89524 16.2727 5.78975C16.1672 5.68426 16.0242 5.625 15.875 5.625Z" fill="#FFB016"/>
</svg>
