<svg width="50" height="37" viewBox="0 0 50 37" fill="none" xmlns="http://www.w3.org/2000/svg">
<path d="M41.4062 19.2188C41.168 19.2188 40.9316 19.2305 40.6992 19.25L34.2266 1.99023C34.0591 1.54326 33.7592 1.15806 33.3669 0.886166C32.9745 0.614272 32.5086 0.468641 32.0312 0.46875H25.7812C25.1596 0.46875 24.5635 0.71568 24.124 1.15522C23.6844 1.59476 23.4375 2.1909 23.4375 2.8125C23.4375 3.4341 23.6844 4.03024 24.124 4.46978C24.5635 4.90932 25.1596 5.15625 25.7812 5.15625H30.4062L36.3105 20.8984C35.0032 21.8629 33.994 23.176 33.3984 24.6875H27.6953L23.2891 12.9277C23.1216 12.4808 22.8217 12.0956 22.4294 11.8237C22.037 11.5518 21.5711 11.4061 21.0938 11.4062H5.46875C4.84715 11.4062 4.25101 11.6532 3.81147 12.0927C3.37193 12.5323 3.125 13.1284 3.125 13.75C3.125 14.3716 3.37193 14.9677 3.81147 15.4073C4.25101 15.8468 4.84715 16.0938 5.46875 16.0938H6.25V16.6641C4.36523 17.6619 2.7877 19.1541 1.68662 20.9805C0.585553 22.8069 0.00249556 24.8986 0 27.0312C0 27.6529 0.24693 28.249 0.686468 28.6885C1.12601 29.1281 1.72215 29.375 2.34375 29.375H3.26953C3.63606 31.3482 4.68162 33.1309 6.2249 34.4139C7.76817 35.6969 9.71181 36.3993 11.7188 36.3993C13.7257 36.3993 15.6693 35.6969 17.2126 34.4139C18.7559 33.1309 19.8014 31.3482 20.168 29.375H32.957C33.2539 30.9807 34.0021 32.4685 35.114 33.6643C36.2259 34.8602 37.6555 35.7145 39.2354 36.1272C40.8152 36.5399 42.48 36.494 44.0347 35.9948C45.5894 35.4957 46.9697 34.5639 48.014 33.3086C49.0583 32.0533 49.7234 30.5265 49.9313 28.9069C50.1393 27.2873 49.8815 25.642 49.1882 24.1636C48.4948 22.6852 47.3947 21.4349 46.0165 20.5592C44.6383 19.6835 43.0391 19.2185 41.4062 19.2188ZM9.375 20.4004C9.83215 20.2388 10.2279 19.9393 10.5078 19.5433C10.7876 19.1474 10.9378 18.6743 10.9375 18.1895V16.0938H19.4688L22.6914 24.6875H5.08984C5.43914 23.6985 6.00526 22.8003 6.74672 22.0585C7.48819 21.3167 8.38621 20.7501 9.375 20.4004ZM11.7188 31.7188C10.959 31.7184 10.2159 31.4964 9.58038 31.0802C8.94485 30.6639 8.44451 30.0713 8.14062 29.375H15.2969C14.993 30.0713 14.4926 30.6639 13.8571 31.0802C13.2216 31.4964 12.4785 31.7184 11.7188 31.7188ZM41.4062 31.7188C40.6337 31.7188 39.8784 31.4897 39.2361 31.0604C38.5937 30.6312 38.093 30.0211 37.7973 29.3074C37.5017 28.5936 37.4243 27.8082 37.5751 27.0504C37.7258 26.2927 38.0978 25.5967 38.6441 25.0504C39.1904 24.5041 39.8864 24.132 40.6442 23.9813C41.4019 23.8306 42.1873 23.9079 42.9011 24.2036C43.6149 24.4993 44.225 24.9999 44.6542 25.6423C45.0834 26.2847 45.3125 27.0399 45.3125 27.8125C45.3125 28.8485 44.901 29.8421 44.1684 30.5746C43.4358 31.3072 42.4423 31.7188 41.4062 31.7188Z" fill="#FFB016"/>
</svg>
